<?xml version="1.0" encoding="UTF-8"?>
<svg width="139px" height="67px" viewBox="0 0 139 67" version="1.1" xmlns="http://www.w3.org/2000/svg" xmlns:xlink="http://www.w3.org/1999/xlink">
    <title>D41FBBCE-1CA6-42AD-B06A-3D139A312C5F</title>
    <defs>
        <polygon id="path-1" points="0 67 139 67 139 0 0 0"></polygon>
    </defs>
    <g id="Page-1" stroke="none" stroke-width="1" fill="none" fill-rule="evenodd">
        <g id="Img1---Logos-alto-contraste-80%" transform="translate(-123.000000, -2618.000000)">
            <g id="Footer-Section" transform="translate(-894.000000, 2132.000000)">
                <g id="Group-35" transform="translate(1017.000000, 486.000000)">
                    <path d="M18,52.9549869 L18,48 L20.044395,48 L20.044395,52.8792414 C20.044395,54.560722 20.7759292,55.255798 22.0128309,55.255798 C23.2620504,55.255798 23.9812668,54.560722 23.9812668,52.8792414 L23.9812668,48 L26,48 L26,52.9549869 C26,55.5591226 24.5112698,57 21.9998289,57 C19.4890723,57 18,55.5591226 18,52.9549869" id="Fill-1" fill="white"></path>
                    <path d="M41.8630219,52.3631461 L43.8275876,52.3631461 L43.8275876,55.8937079 C42.8053511,56.6147191 41.3983363,57 40.0708687,57 C37.1506559,57 35,55.1231461 35,52.4996629 C35,49.8768539 37.1506559,48 40.1108223,48 C41.743521,48 43.0976244,48.5217978 44,49.5037079 L42.6196209,50.6976404 C41.9425692,50.0258427 41.1593345,49.7153933 40.2170053,49.7153933 C38.4118941,49.7153933 37.1769317,50.8462921 37.1769317,52.4996629 C37.1769317,54.1280899 38.4118941,55.2846067 40.1903695,55.2846067 C40.7745561,55.2846067 41.318789,55.1848315 41.8630219,54.9117978 L41.8630219,52.3631461 Z" id="Fill-3" fill="white"></path>
                    <polygon id="Fill-5" fill="white" points="60.0734733 57 60.0607581 51.6002092 57.4496718 56.0486133 56.5245541 56.0486133 53.9265267 51.7156027 53.9265267 57 52 57 52 48 53.6983401 48 57.0190728 53.5929269 60.288601 48 61.9745696 48 62 57"></polygon>
                    <polygon id="Fill-7" fill="white" points="72.9045629 55.0717772 72.1149529 57 70 57 73.9746468 48 76.0129184 48 80 57 77.8346171 57 77.0446617 55.0717772 76.3952886 53.4904323 74.9811751 50.043965 73.5670616 53.4904323"></polygon>
                    <polygon id="Fill-9" fill="white" points="97 48 97 57 95.3429633 57 90.9939179 51.5360629 90.9939179 57 89 57 89 48 90.6695388 48 95.0060821 53.4646343 95.0060821 48"></polygon>
                    <mask id="mask-2" fill="white">
                        <use xlink:href="#path-1"></use>
                    </mask>
                    <g id="Clip-12"></g>
                    <polygon id="Fill-11" fill="white" mask="url(#mask-2)" points="107 57 109 57 109 48 107 48"></polygon>
                    <polygon id="Fill-13" fill="white" mask="url(#mask-2)" points="118.937767 49.6974357 116 49.6974357 116 48 124 48 124 49.6974357 121.062233 49.6974357 121.062233 57 118.937767 57"></polygon>
                    <polygon id="Fill-14" fill="white" mask="url(#mask-2)" points="135.527731 53.8116357 135.527731 57 133.459462 57 133.459462 53.7858388 130 48 132.195654 48 134.583077 51.9985281 136.970154 48 139 48"></polygon>
                    <polygon id="Fill-15" fill="white" mask="url(#mask-2)" points="2.90456288 55.0717772 2.11495285 57 0 57 3.97464682 48 6.01291838 48 10 57 7.83461711 57 7.04466167 55.0717772 6.39528859 53.4904323 4.98117509 50.043965 3.56706159 53.4904323"></polygon>
                    <path d="M20.9183815,65.8301978 L20.4942936,64.6813421 L20.0699464,65.8301978 L20.9183815,65.8301978 Z M21.1131766,66.3573507 L19.8712606,66.3573507 L19.6344458,67 L19,67 L20.1923742,64 L20.8037351,64 L22,67 L21.3502507,67 L21.1131766,66.3573507 Z" id="Fill-16" fill="white" mask="url(#mask-2)"></path>
                    <path d="M25,65.6514444 L25,64 L25.7666203,64 L25.7666203,65.6262751 C25.7666203,66.1868624 26.040895,66.4185337 26.5046569,66.4185337 C26.9732363,66.4185337 27.2426935,66.1868624 27.2426935,65.6262751 L27.2426935,64 L28,64 L28,65.6514444 C28,66.5194966 27.4418157,67 26.4998394,67 C25.5585055,67 25,66.5194966 25,65.6514444" id="Fill-17" fill="white" mask="url(#mask-2)"></path>
                    <path d="M34.2876164,65.4545795 L34.9426369,65.4545795 L34.9426369,66.6312928 C34.6017619,66.8714728 34.1326459,67 33.6902593,67 C32.7168886,67 32,66.3745195 32,65.5001406 C32,64.6257617 32.7168886,64 33.7037742,64 C34.2479728,64 34.699069,64.1740883 35,64.5014531 L34.5398939,64.8994094 C34.3140454,64.6752601 34.0530584,64.5717634 33.7389128,64.5717634 C33.1373511,64.5717634 32.7255982,64.9486266 32.7255982,65.5001406 C32.7255982,66.0429362 33.1373511,66.4282366 33.7302032,66.4282366 C33.9248173,66.4282366 34.1062168,66.3953314 34.2876164,66.3042092 L34.2876164,65.4545795 Z" id="Fill-18" fill="white" mask="url(#mask-2)"></path>
                    <polygon id="Fill-19" fill="white" mask="url(#mask-2)" points="40.4218858 67 40.4180145 65.2000582 39.6349794 66.6831846 39.357278 66.6831846 38.5775981 65.238751 38.5775981 67 38 67 38 64 38.5092051 64 39.5054198 65.8645268 40.4866655 64 40.9919993 64 41 67"></polygon>
                    <polygon id="Fill-20" fill="white" mask="url(#mask-2)" points="47 66.443065 47 67 45 67 45 64 46.9519098 64 46.9519098 64.556935 45.5938635 64.556935 45.5938635 65.2084384 46.7931121 65.2084384 46.7931121 65.7482056 45.5938635 65.7482056 45.5938635 66.443065"></polygon>
                    <polygon id="Fill-21" fill="white" mask="url(#mask-2)" points="54 64 54 67 53.3786213 67 51.7476211 65.1785299 51.7476211 67 51 67 51 64 51.6261366 64 53.2523789 65.8214701 53.2523789 64"></polygon>
                    <polygon id="Fill-22" fill="white" mask="url(#mask-2)" points="59.1015912 64.5653186 58 64.5653186 58 64 61 64 61 64.5653186 59.8984088 64.5653186 59.8984088 67 59.1015912 67"></polygon>
                    <polygon id="Fill-23" fill="white" mask="url(#mask-2)" points="65 66.443065 65 67 63 67 63 64 64.9519098 64 64.9519098 64.556935 63.5938635 64.556935 63.5938635 65.2084384 64.7931121 65.2084384 64.7931121 65.7482056 63.5938635 65.7482056 63.5938635 66.443065"></polygon>
                    <path d="M69.3209603,66.4300815 C69.9130351,66.4300815 70.3009063,66.0745733 70.3009063,65.5002909 C70.3009063,64.9257176 69.9130351,64.5699185 69.3209603,64.5699185 L68.6901273,64.5699185 L68.6901273,66.4300815 L69.3209603,66.4300815 Z M68,64 L69.3550906,64 C70.330698,64 71,64.5914469 71,65.5002909 C71,66.4088441 70.330698,67 69.3550906,67 L68,67 L68,64 Z" id="Fill-24" fill="white" mask="url(#mask-2)"></path>
                    <polygon id="Fill-25" fill="white" mask="url(#mask-2)" points="82 64 82 67 81.2428632 67 81.2428632 65.7699767 79.7568196 65.7699767 79.7568196 67 79 67 79 64 79.7568196 64 79.7568196 65.1828937 81.2428632 65.1828937 81.2428632 64"></polygon>
                    <path d="M86,65.6514444 L86,64 L86.7663812,64 L86.7663812,65.6262751 C86.7663812,66.1868624 87.0410064,66.4185337 87.504818,66.4185337 C87.9731263,66.4185337 88.2429336,66.1868624 88.2429336,65.6262751 L88.2429336,64 L89,64 L89,65.6514444 C89,66.5194966 88.4417559,67 87.5,67 C86.5582441,67 86,66.5194966 86,65.6514444" id="Fill-26" fill="white" mask="url(#mask-2)"></path>
                    <polygon id="Fill-27" fill="white" mask="url(#mask-2)" points="94.4223522 67 94.4182225 65.2000582 93.63512 66.6831846 93.3576529 66.6831846 92.5779059 65.238751 92.5779059 67 92 67 92 64 92.509507 64 93.5058075 65.8645268 94.4868795 64 94.9925148 64 95 67"></polygon>
                    <path d="M100.918713,65.8301978 L100.494552,64.6813421 L100.070131,65.8301978 L100.918713,65.8301978 Z M101.113542,66.3573507 L99.8714113,66.3573507 L99.6342961,67 L99,67 L100.192321,64 L100.803788,64 L102,67 L101.350657,67 L101.113542,66.3573507 Z" id="Fill-28" fill="white" mask="url(#mask-2)"></path>
                    <polygon id="Fill-29" fill="white" mask="url(#mask-2)" points="108 64 108 67 107.37837 67 105.747542 65.1785299 105.747542 67 105 67 105 64 105.626388 64 107.252458 65.8214701 107.252458 64"></polygon>
                    <polygon id="Fill-30" fill="white" mask="url(#mask-2)" points="111 67 112 67 112 64 111 64"></polygon>
                    <polygon id="Fill-31" fill="white" mask="url(#mask-2)" points="117.101591 64.5653186 116 64.5653186 116 64 119 64 119 64.5653186 117.898075 64.5653186 117.898075 67 117.101591 67"></polygon>
                    <polygon id="Fill-32" fill="white" mask="url(#mask-2)" points="122.842399 65.9371545 122.842399 67 122.153269 67 122.153269 65.9287169 121 64 121.731876 64 122.527583 65.3328484 123.323289 64 124 64"></polygon>
                    <path d="M70,27.8222591 C64.5838858,27.8222591 60.1777409,23.4157828 60.1777409,18.0003315 C60.1777409,12.5838858 64.5838858,8.17774095 70,8.17774095 C70.9493116,8.17774095 71.8661397,8.31562978 72.7349057,8.568205 C72.1485467,8.88044365 71.627486,9.29643039 71.1882968,9.78799082 C70.7991586,9.73164202 70.4043855,9.69286079 70,9.69286079 C65.4191739,9.69286079 61.6925293,13.4195054 61.6925293,18.0003315 C61.6925293,22.5808261 65.4191739,26.3078021 70,26.3078021 C74.4929883,26.3078021 78.1549975,22.7203723 78.2942121,18.2608618 C78.8593575,17.9105048 79.3568842,17.463692 79.7642529,16.9416369 C79.8017083,17.2896736 79.8222591,17.6423508 79.8222591,18.0003315 C79.8222591,23.4157828 75.4161142,27.8222591 70,27.8222591 M77.5384753,14.5305711 C77.1516573,15.3522693 76.3223355,15.9257012 75.3557879,15.9257012 C75.1005609,15.9257012 74.858924,15.8753187 74.6275625,15.8014023 C73.749847,15.5219786 73.0945436,14.7612698 72.9699133,13.8255482 C72.9559918,13.7208057 72.9377613,13.6170576 72.9377613,13.5083376 C72.9377613,12.3916369 73.7031107,11.4588985 74.7336308,11.1824579 C74.9335033,11.1287608 75.1393422,11.090974 75.3557879,11.090974 C76.6889342,11.090974 77.7731515,12.1755227 77.7731515,13.5083376 C77.7731515,13.8749363 77.6849822,14.2189954 77.5384753,14.5305711 M75.0113972,19.086206 C74.5115502,21.3941866 72.4554819,23.1300612 70,23.1300612 C67.1716216,23.1300612 64.8702703,20.8283784 64.8702703,18.0003315 C64.8702703,15.2399031 67.0635645,12.9882713 69.7978072,12.8808771 C69.7746048,13.0870474 69.7600204,13.2962009 69.7600204,13.5083376 C69.7600204,16.4772565 72.086563,18.9072157 75.0113972,19.086206 M70,5 C62.832101,5 57,10.832101 57,18.0003315 C57,25.1682305 62.832101,31 70,31 C77.167899,31 83,25.1682305 83,18.0003315 C83,10.832101 77.167899,5 70,5" id="Fill-33" fill="white" mask="url(#mask-2)"></path>
                    <path d="M71,32.7169682 C62.8850522,32.7169682 56.2830318,26.1152902 56.2830318,18 C56.2830318,9.88470978 62.8850522,3.28303179 71,3.28303179 C79.1149478,3.28303179 85.7169682,9.88470978 85.7169682,18 C85.7169682,26.1152902 79.1149478,32.7169682 71,32.7169682 M71,0 C61.0748816,0 53,8.07488157 53,18 C53,27.9251184 61.0748816,36 71,36 C80.9251184,36 89,27.9251184 89,18 C89,8.07488157 80.9251184,0 71,0" id="Fill-34" fill="white" mask="url(#mask-2)"></path>
                </g>
            </g>
        </g>
    </g>
</svg>
